<?xml version="1.0" encoding="utf-8"?>
<!-- Generator: Adobe Illustrator 24.2.1, SVG Export Plug-In . SVG Version: 6.00 Build 0)  -->
<svg version="1.1" id="Layer_1" xmlns="http://www.w3.org/2000/svg" xmlns:xlink="http://www.w3.org/1999/xlink" x="0px" y="0px"
	 viewBox="0 0 596.12 407.65" style="enable-background:new 0 0 596.12 407.65;" xml:space="preserve">
<style type="text/css">
	.st0{fill:#D6372E;}
	.st1{fill:#FFFFFF;}
</style>
<circle class="st0" cx="297.27" cy="212.28" r="181.25"/>
<g>
	<path class="st1" d="M214.98,266.87L230.21,315l-0.06-15.44c0-0.4,0.11-0.8,0.33-1.14l8.51-13.13c0.6-0.92,1.81-1.22,2.77-0.68
		l14.45,8.17c1.04,0.59,1.37,1.92,0.73,2.93l-25.94,40.62c-0.38,0.6-1.04,0.96-1.75,0.96h-12.16c-0.91,0-1.71-0.59-1.98-1.46
		l-34.95-111.55c-0.56-1.78,1.33-3.33,2.97-2.45l112.87,61.01c0.63,0.34,1.39,0.33,2.01-0.02l28.29-15.96
		c1.28-0.72,2.89,0.07,3.08,1.53c0.61,4.66,1.64,10.17,3.35,15.95c0.27,0.93-0.11,1.92-0.95,2.4l-33.79,19.4
		c-0.62,0.36-1.38,0.37-2.02,0.03l-78.02-41.79C216.3,263.53,214.42,265.09,214.98,266.87z"/>
	<path class="st1" d="M414.37,224.38l-34.54,111.46c-0.27,0.87-1.07,1.46-1.98,1.46h-12.46c-0.65,0-1.25-0.29-1.64-0.81
		c-5.32-6.93-42.02-57.44-23.01-107.87c0.45-1.18-0.16-2.4-1.37-2.76c-22.32-6.55-41.2-22.17-51.74-43.51
		c-0.51-1.04-0.05-2.3,1-2.79l14.93-6.92c1.01-0.47,2.22-0.07,2.72,0.93c10.13,20.19,30.17,33.53,52.76,34.96l15.31,0.97
		c1.65,0.11,2.52,2.01,1.52,3.33l-9.28,12.21c0,0-28.67,34.32,7.69,89.42l-4.26-15.49c-0.1-0.37-0.1-0.77,0.01-1.14l9.25-31.18
		c0.54-1.82-1.44-3.35-3.06-2.37l-11.1,6.67c-1.32,0.79-3.01-0.07-3.14-1.6c-0.49-5.82-0.57-12.88,0.77-19.38
		c0.12-0.59,0.5-1.09,1.03-1.39l47.61-26.65C413.01,221.03,414.93,222.58,414.37,224.38z"/>
	<path class="st1" d="M252.97,229.22c2.8,6.17,6.03,15.01,7.76,22.03c0.43,1.73-1.41,3.15-2.99,2.32
		c-6.06-3.19-17.33-9.14-20.21-10.65c-0.44-0.23-0.77-0.62-0.96-1.08c-2.28-5.81-7.08-12.85-9.64-16.21l-9.31-12.66
		c-0.99-1.34-0.07-3.25,1.6-3.31l15.26-0.55c22.63-1.44,41.63-16.23,53.7-35.33c0.57-0.91,1.73-1.24,2.69-0.76l14.11,7.08
		c1.01,0.51,1.44,1.74,0.94,2.76c-10.52,21.34-29.38,36.97-51.68,43.54C253.06,226.74,252.46,228.08,252.97,229.22z"/>
	<path class="st1" d="M299.5,189.81c-3.26-2.19-10.31-6.92-13.57-9.12c-0.95-0.64-1.21-1.93-0.57-2.88
		c3.17-4.69,12.67-18.68,26.41-38.33c0.5-0.72,0.51-1.68,0-2.39c-2.51-3.55-9.99-14.11-13.24-18.69c-0.78-1.1-2.38-1.17-3.26-0.15
		l-16.2,18.77c-0.63,0.73-0.67,1.8-0.1,2.58l11.55,15.82c0.54,0.73,0.53,1.73-0.01,2.46l-10.19,13.72c-0.83,1.12-2.5,1.12-3.33,0.01
		l-24.05-32.05c-0.57-0.76-0.55-1.82,0.05-2.56l42.32-51.71c0.86-1.05,2.47-1.01,3.27,0.08l38.4,51.65c0.55,0.74,0.55,1.75,0,2.48
		l-3.36,4.5c-16.35,23.27-27.73,40.02-31.25,45.23C301.73,190.2,300.45,190.45,299.5,189.81z"/>
</g>
</svg>
